PathFileType  4	(X/Y/Z) C:\Users\antoi\Documents\MyRepositories\mobilecap\ResultsAnalysis
DataRate	CameraRate	NumFrames	NumMarkers	Units	OrigDataRate	OrigDataStartFrame	OrigNumFrames
100.0	100.0	5	51	mm	100.0	68	271
Frame#	Time	r_knee			r_shank_antsup			r_ankle			r_calc			r_5meta			r_toe			L_knee			L_shank_antsup			L_ankle			L_calc			L_5meta			L_toe			r_sh2			r_sh3			r_sh4			L_sh2			L_sh3			r_thigh1			r_thigh2			r_thigh3			r_thigh4			r_thigh5			L_thigh1			L_thigh2			L_thigh3			L_thigh4			r.ASIS			r.PSIS			L.ASIS			L.PSIS			C7			R_Shoulder			L_Shoulder			R_Sternum			L_Sternum			R_humerus			R_elbow_med			R_elbow_lat			R_forearm			R_wrist_radius			R_wrist_ulna			L_humerus			L_elbow_med			L_elbow_lat			L_forearm			L_wrist_radius			L_wrist_ulna			R_HJC			L_HJC			R_HJC_reg			L_HJC_reg			
		X1	Y1	Z1	X2	Y2	Z2	X3	Y3	Z3	X4	Y4	Z4	X5	Y5	Z5	X6	Y6	Z6	X7	Y7	Z7	X8	Y8	Z8	X9	Y9	Z9	X10	Y10	Z10	X11	Y11	Z11	X12	Y12	Z12	X13	Y13	Z13	X14	Y14	Z14	X15	Y15	Z15	X16	Y16	Z16	X17	Y17	Z17	X18	Y18	Z18	X19	Y19	Z19	X20	Y20	Z20	X21	Y21	Z21	X22	Y22	Z22	X23	Y23	Z23	X24	Y24	Z24	X25	Y25	Z25	X26	Y26	Z26	X27	Y27	Z27	X28	Y28	Z28	X29	Y29	Z29	X30	Y30	Z30	X31	Y31	Z31	X32	Y32	Z32	X33	Y33	Z33	X34	Y34	Z34	X35	Y35	Z35	X36	Y36	Z36	X37	Y37	Z37	X38	Y38	Z38	X39	Y39	Z39	X40	Y40	Z40	X41	Y41	Z41	X42	Y42	Z42	X43	Y43	Z43	X44	Y44	Z44	X45	Y45	Z45	X46	Y46	Z46	X47	Y47	Z47	X48	Y48	Z48	X49	Y49	Z49	X50	Y50	Z50	X51	Y51	Z51	

68	0.67000000	-1089.50883	761.29483	-439.45536	-1116.82741	725.04864	-411.30571	-1263.14383	403.35653	-473.03628	-1324.54251	364.00303	-527.26357	-1150.98788	347.01052	-429.38901	-1103.95687	370.86426	-478.17613	-1101.30631	760.71862	-739.15584	-1088.99038	671.06822	-752.30457	-1268.33830	405.72127	-709.31065	-1333.66118	366.28608	-657.74463	-1158.38917	351.46744	-741.29552	-1111.75759	369.17011	-688.48655	-1165.05275	620.13927	-411.13515	-1052.15197	701.86912	-447.17509	-1103.54368	598.47181	-466.90986	-1164.10761	716.83766	-763.23371	-1217.57401	607.38613	-757.17232	-1143.65481	1055.22169	-488.43784	-1081.98745	963.58268	-475.60326	-1089.44603	937.05001	-412.94540	-1196.12219	1030.32602	-391.13340	-1140.43562	929.82163	-388.86181	-1204.41530	1060.41481	-759.55825	-1145.62358	930.41997	-770.38184	-1307.70523	1012.47047	-753.22215	-1249.50671	887.06338	-738.33425	-1169.14026	1148.92040	-459.05487	-1327.59112	1261.72752	-532.49003	-1182.02559	1125.94762	-688.15476	-1330.76068	1260.58514	-627.59749	-975.75083	1598.47418	-606.50240	-919.16905	1515.48203	-444.24390	-952.71897	1507.64907	-771.15396	-944.02300	1449.32270	-586.22964	-944.74021	1445.62954	-622.05173	-1115.24126	1392.60186	-338.66773	-1222.43327	1407.33077	-361.80911	-1202.18552	1380.31796	-309.37446	-1302.92332	1290.71985	-266.69356	-1391.30188	1228.36700	-260.01780	-1397.42149	1263.96009	-232.67425	-1156.30437	1386.25436	-845.56543	-1264.49494	1376.84881	-796.61455	-1251.60406	1364.86391	-852.67666	-1348.94170	1268.50730	-889.71479	-1428.86334	1192.58145	-889.47205	-1452.01929	1230.25292	-899.58541	-1275.09618	1109.34627	-483.19028	-1291.17216	1107.64706	-673.17561	-1266.19200	1107.48358	-486.77115	-1271.26029	1105.65701	-638.87697	
69	0.68000000	-1086.49037	759.46588	-438.82790	-1113.99740	723.49546	-410.45680	-1262.84938	403.37688	-473.22891	-1324.38639	364.08816	-527.19686	-1151.37148	346.38701	-429.93450	-1103.81338	370.40402	-478.03064	-1097.58227	759.10182	-739.61628	-1085.99282	669.55540	-752.45541	-1267.97735	405.82216	-709.24692	-1333.61455	366.38962	-657.68507	-1158.36703	351.40393	-741.30858	-1111.75197	368.89496	-688.41997	-1163.14462	618.96972	-410.82939	-1049.22443	699.79314	-446.50575	-1101.53220	596.81942	-466.45586	-1161.39169	715.36069	-762.30558	-1215.38484	607.07403	-757.04637	-1142.97086	1052.73669	-487.80935	-1080.41213	961.74678	-474.62057	-1087.84157	935.04182	-412.20556	-1195.33732	1027.43505	-390.60450	-1138.69658	927.45753	-388.08901	-1203.50507	1057.37469	-759.39764	-1143.54467	928.00467	-770.35228	-1306.52823	1008.61305	-753.06727	-1247.09128	883.60609	-738.34450	-1168.67375	1143.82374	-459.04941	-1325.68125	1258.43414	-532.50986	-1181.36719	1121.24137	-688.10585	-1328.85293	1257.45279	-626.96952	-968.93254	1590.04067	-606.76849	-913.11321	1505.78481	-444.30535	-946.46934	1497.49221	-771.01874	-937.38803	1441.34495	-588.89895	-940.06352	1436.47775	-622.49276	-1111.78251	1386.32161	-339.60050	-1218.44322	1402.81361	-363.32972	-1199.06414	1375.64356	-310.61293	-1301.77909	1288.48608	-268.31206	-1391.67015	1228.13188	-261.87513	-1396.92633	1263.99462	-234.69521	-1152.37343	1378.80079	-844.37101	-1260.16863	1371.73877	-794.84096	-1247.74960	1359.58080	-851.43126	-1348.05011	1267.26672	-888.94392	-1430.74078	1194.50884	-889.57742	-1452.70851	1233.16287	-898.56779	-1274.90218	1105.37737	-483.19655	-1290.85176	1104.17824	-673.19624	-1265.95382	1103.55302	-486.80214	-1271.05713	1101.97031	-638.85007	
70	0.69000000	-1083.37752	757.62585	-438.07091	-1111.04975	722.07692	-409.61530	-1262.46497	403.25005	-473.28071	-1324.23461	364.15776	-527.03711	-1151.35678	346.05586	-429.79594	-1103.71923	369.88876	-477.97139	-1093.67196	757.37876	-740.04601	-1082.94936	667.75302	-752.62629	-1267.50891	405.93418	-709.03922	-1333.51995	366.53906	-657.63971	-1158.32873	351.35119	-741.33074	-1111.48908	368.71854	-688.28521	-1161.39148	617.92782	-410.25711	-1046.22134	697.68074	-445.73300	-1099.50705	595.42241	-465.83772	-1158.26442	714.10518	-761.86606	-1213.12602	606.84651	-756.97972	-1141.93643	1050.35751	-486.66879	-1078.59457	959.81393	-473.66876	-1086.10842	933.07932	-411.38056	-1194.32153	1024.72363	-389.87566	-1136.77716	925.11797	-387.48617	-1202.42909	1054.36925	-759.28237	-1141.29101	925.45505	-770.30879	-1305.08719	1004.60733	-753.00540	-1244.42982	880.15309	-738.42442	-1167.81695	1139.07585	-458.41051	-1323.55425	1255.11616	-532.52860	-1180.32214	1116.88214	-689.43794	-1326.55330	1253.85317	-627.42328	-962.26519	1581.76492	-607.02410	-907.35194	1496.39583	-444.28648	-940.53030	1487.43514	-771.14951	-931.61974	1432.94748	-590.07848	-935.84755	1427.28655	-622.33725	-1108.03876	1379.24621	-340.32836	-1214.32437	1397.41025	-364.61488	-1195.71284	1370.17434	-311.76399	-1299.78689	1284.78285	-269.78672	-1390.53492	1225.40110	-263.85641	-1395.52283	1261.61568	-236.81247	-1148.26136	1370.92596	-843.39475	-1255.89897	1365.79295	-793.44478	-1243.74864	1353.47802	-850.20242	-1346.28233	1264.59285	-888.06457	-1431.24870	1194.57532	-889.76463	-1452.05603	1233.83229	-897.59022	-1274.20452	1101.41056	-483.67853	-1289.86918	1100.66578	-673.70322	-1265.75248	1099.73503	-486.60026	-1270.59833	1097.69314	-639.91259	
71	0.70000000	-1080.13663	755.82818	-437.15471	-1107.79211	720.38601	-409.19735	-1262.19740	404.28569	-473.19070	-1324.14128	364.22228	-526.87562	-1151.12021	346.03247	-429.18232	-1103.65652	369.41229	-477.93345	-1090.00251	755.39822	-740.15339	-1079.83371	665.89851	-752.93058	-1267.03340	406.15284	-708.87406	-1333.38158	366.73929	-657.62218	-1158.27490	351.31588	-741.33709	-1111.18250	368.56558	-688.18869	-1159.30383	616.74522	-409.57684	-1043.18201	695.59011	-444.83331	-1097.34878	594.10220	-465.06277	-1154.63866	713.07963	-761.92907	-1210.73135	606.48655	-757.00730	-1140.71702	1048.04733	-485.66224	-1076.65097	957.87824	-472.84982	-1084.21818	931.24553	-410.46768	-1193.06285	1022.04009	-389.17279	-1134.70572	922.80646	-386.82415	-1201.23874	1051.37055	-759.09726	-1138.93930	922.87524	-770.19660	-1303.45969	1000.51045	-752.82222	-1241.56778	876.78182	-738.45679	-1166.65296	1134.44651	-457.72757	-1321.20227	1251.71760	-532.54171	-1178.87094	1112.61438	-691.44005	-1323.87161	1249.82688	-628.59788	-955.82054	1573.65920	-607.36443	-901.85568	1487.33979	-444.19148	-934.79340	1477.52721	-771.45638	-926.93834	1424.11769	-589.76556	-931.18127	1418.46074	-622.02855	-1104.01961	1371.68375	-340.77935	-1210.07579	1390.94567	-365.77445	-1192.01803	1363.74093	-312.82377	-1296.92617	1279.38682	-271.08105	-1387.95900	1220.31157	-265.52517	-1393.02670	1256.91408	-238.57145	-1143.95304	1362.65872	-842.67345	-1251.52692	1358.99670	-792.22998	-1239.52923	1346.52044	-849.04508	-1343.60614	1260.40132	-887.44222	-1430.27672	1192.47661	-890.01631	-1450.07811	1232.24166	-896.96470	-1273.07982	1097.35155	-484.49736	-1288.36475	1097.00961	-674.55474	-1265.42630	1096.08717	-486.55409	-1269.73805	1093.03965	-641.59388	
72	0.71000000	-1076.76983	754.08999	-436.04633	-1104.32414	718.50551	-408.81888	-1261.98721	406.30870	-473.00771	-1324.06910	364.33679	-526.80712	-1150.91805	346.08680	-428.64180	-1103.58461	369.07206	-477.81980	-1086.33425	753.28397	-740.26764	-1076.66655	663.97066	-753.18075	-1266.67524	406.46832	-708.79927	-1333.24065	366.98279	-657.61134	-1158.21130	351.29879	-741.33743	-1111.05657	368.38409	-688.18994	-1157.04399	615.33967	-409.06502	-1040.13317	693.47005	-443.72357	-1095.04635	592.54885	-464.24465	-1150.83901	712.03770	-762.08484	-1208.17839	605.96581	-757.06447	-1139.47275	1045.94415	-485.24305	-1074.60512	955.96731	-472.01324	-1082.11849	929.38250	-409.56668	-1191.60394	1019.28425	-388.58516	-1132.55906	920.53067	-385.88489	-1199.85067	1048.30102	-759.02588	-1136.48503	920.23294	-770.11786	-1301.64370	996.46991	-752.57048	-1238.51862	873.37330	-738.39166	-1165.26685	1129.87143	-457.21443	-1318.60625	1248.18773	-532.59250	-1177.21272	1108.32169	-692.96437	-1320.91826	1245.70719	-629.65666	-949.64381	1565.71034	-607.77812	-896.68173	1478.71503	-444.09178	-929.26185	1467.87999	-771.52435	-922.47202	1415.59513	-589.34147	-926.30977	1410.07745	-621.65289	-1099.72627	1363.84729	-341.15832	-1205.67972	1383.30637	-366.81016	-1187.87057	1356.18851	-313.68094	-1293.13101	1272.10482	-272.22755	-1383.78048	1213.10996	-266.45872	-1389.38763	1249.73758	-240.14347	-1139.40497	1354.02106	-842.07199	-1246.91184	1351.47978	-791.42631	-1235.04513	1338.71158	-848.21749	-1339.99595	1254.50079	-887.09428	-1427.66548	1187.96469	-890.30098	-1446.98314	1228.08779	-896.23237	-1271.69366	1093.30022	-485.16384	-1286.59822	1093.23409	-675.25203	-1264.75951	1092.47990	-486.60871	-1268.48414	1088.48535	-642.95540	
